<svg width="16" height="16" viewBox="0 0 16 16" fill="none" xmlns="http://www.w3.org/2000/svg">
<path d="M6.08001 6.07997V5.57997C5.80386 5.57997 5.58001 5.80383 5.58001 6.07997H6.08001ZM6.14376 6.07997H6.64376C6.64376 5.80383 6.4199 5.57997 6.14376 5.57997V6.07997ZM9.92001 6.07997V5.57997C9.64386 5.57997 9.42001 5.80383 9.42001 6.07997H9.92001ZM9.97668 6.07997H10.4767C10.4767 5.80383 10.2528 5.57997 9.97668 5.57997V6.07997ZM6.14376 6.13123V6.63123C6.4199 6.63123 6.64376 6.40737 6.64376 6.13123H6.14376ZM6.08001 6.13123H5.58001C5.58001 6.40737 5.80386 6.63123 6.08001 6.63123V6.13123ZM9.97668 6.13123V6.63123C10.2528 6.63123 10.4767 6.40737 10.4767 6.13123H9.97668ZM9.92001 6.13123H9.42001C9.42001 6.40737 9.64386 6.63123 9.92001 6.63123V6.13123ZM6.20645 9.68292C6.06111 9.44812 5.75294 9.3756 5.51814 9.52094C5.28334 9.66628 5.21082 9.97444 5.35617 10.2092L5.78131 9.94608L6.20645 9.68292ZM10.6438 10.2092C10.7892 9.97444 10.7167 9.66628 10.4819 9.52094C10.2471 9.3756 9.9389 9.44812 9.79356 9.68292L10.2187 9.94608L10.6438 10.2092ZM14.4 7.99997H13.9C13.9 11.2585 11.2585 13.9 8.00001 13.9V14.4V14.9C11.8108 14.9 14.9 11.8107 14.9 7.99997H14.4ZM8.00001 14.4V13.9C4.74153 13.9 2.10001 11.2585 2.10001 7.99997H1.60001H1.10001C1.10001 11.8107 4.18924 14.9 8.00001 14.9V14.4ZM1.60001 7.99997H2.10001C2.10001 4.7415 4.74153 2.09998 8.00001 2.09998V1.59998V1.09998C4.18924 1.09998 1.10001 4.18921 1.10001 7.99997H1.60001ZM8.00001 1.59998V2.09998C11.2585 2.09998 13.9 4.7415 13.9 7.99997H14.4H14.9C14.9 4.18921 11.8108 1.09998 8.00001 1.09998V1.59998ZM6.08001 6.07997V6.57997H6.14376V6.07997V5.57997H6.08001V6.07997ZM9.92001 6.07997V6.57997H9.97668V6.07997V5.57997H9.92001V6.07997ZM6.14376 6.07997H5.64376V6.13123H6.14376H6.64376V6.07997H6.14376ZM6.14376 6.13123V5.63123H6.08001V6.13123V6.63123H6.14376V6.13123ZM6.08001 6.13123H6.58001V6.07997H6.08001H5.58001V6.13123H6.08001ZM9.97668 6.07997H9.47668V6.13123H9.97668H10.4767V6.07997H9.97668ZM9.97668 6.13123V5.63123H9.92001V6.13123V6.63123H9.97668V6.13123ZM9.92001 6.13123H10.42V6.07997H9.92001H9.42001V6.13123H9.92001ZM8.00001 11.1999V10.6999C7.25192 10.6999 6.58817 10.2996 6.20645 9.68292L5.78131 9.94608L5.35617 10.2092C5.9077 11.1002 6.88255 11.6999 8.00001 11.6999V11.1999ZM10.2187 9.94608L9.79356 9.68292C9.41184 10.2996 8.74809 10.6999 8.00001 10.6999V11.1999V11.6999C9.11746 11.6999 10.0923 11.1002 10.6438 10.2092L10.2187 9.94608Z" fill="white"/>
</svg>
